<?xml version="1.0" standalone="no"?>
<!DOCTYPE svg PUBLIC "-//W3C//DTD SVG 20010904//EN"
 "http://www.w3.org/TR/2001/REC-SVG-20010904/DTD/svg10.dtd">
<svg version="1.0" xmlns="http://www.w3.org/2000/svg"
 width="485.000000pt" height="485.000000pt" viewBox="0 0 485.000000 485.000000"
 preserveAspectRatio="xMidYMid meet">
<metadata>
Created by potrace 1.11, written by Peter Selinger 2001-2013
</metadata>
<g transform="translate(0.000000,485.000000) scale(0.100000,-0.100000)"
fill="#000000" stroke="none">
<path d="M676 4842 c-17 -4 -17 -5 0 -23 9 -10 52 -69 95 -131 113 -163 252
-363 344 -494 44 -63 104 -149 134 -191 61 -89 176 -252 271 -387 36 -50 88
-125 115 -166 28 -41 55 -80 60 -86 6 -6 16 -20 23 -30 7 -11 55 -80 107 -154
52 -74 124 -178 160 -230 37 -52 104 -149 151 -215 46 -66 100 -142 119 -170
19 -27 35 -57 35 -65 -1 -8 -35 -65 -78 -127 -42 -61 -117 -171 -167 -243 -49
-73 -95 -137 -100 -144 -6 -6 -48 -65 -93 -131 -46 -66 -125 -181 -177 -255
-51 -74 -128 -184 -170 -245 -42 -60 -114 -164 -160 -230 -46 -66 -118 -169
-160 -230 -42 -60 -108 -156 -148 -213 -40 -56 -105 -151 -146 -210 -106 -153
-115 -166 -122 -172 -3 -3 -38 -54 -79 -114 -40 -61 -81 -119 -92 -130 -10
-11 -17 -27 -16 -35 3 -12 42 -15 241 -15 232 -1 238 0 257 21 10 12 24 32 31
45 6 12 15 25 18 28 19 15 59 78 54 84 -4 3 -2 6 4 6 6 0 34 36 63 80 29 44
57 80 62 80 5 0 6 4 3 10 -3 5 -1 10 6 10 7 0 10 3 7 6 -3 3 5 17 18 31 13 14
24 32 24 38 0 7 7 15 15 19 8 3 15 12 15 20 0 7 7 17 16 20 9 4 14 9 11 13 -4
3 3 14 14 24 11 9 20 21 20 26 0 4 9 18 19 31 11 12 17 22 14 22 -3 0 1 7 8
15 25 27 34 40 53 72 11 18 23 33 27 33 4 0 8 7 8 15 0 7 8 19 18 24 9 6 13
11 9 11 -8 0 4 17 53 77 6 7 10 17 10 23 0 5 5 10 12 10 6 0 9 3 5 6 -3 3 6
17 21 31 15 14 25 26 23 26 -8 3 71 117 80 117 5 0 9 6 9 13 0 7 9 23 20 35
11 12 20 26 20 32 0 5 5 10 12 10 6 0 9 3 6 6 -3 3 5 17 18 31 13 14 24 30 24
35 0 5 11 21 25 36 14 15 25 32 25 39 0 7 5 13 12 13 6 0 9 3 6 6 -3 3 5 17
18 31 13 14 24 32 24 40 0 8 5 11 10 8 6 -3 10 0 10 8 0 8 11 27 25 43 14 16
28 37 31 47 3 9 9 17 14 17 5 0 11 8 14 18 3 9 16 28 29 42 13 14 24 30 25 35
2 6 12 20 22 33 11 12 20 27 20 32 0 6 5 10 10 10 6 0 10 7 10 15 0 8 3 15 8
15 4 0 16 16 26 35 10 19 27 43 36 53 17 18 63 84 86 124 6 10 20 26 30 34 11
9 12 12 4 8 -13 -6 5 21 30 46 3 3 21 29 40 57 19 29 37 53 40 53 3 0 11 -8
18 -17 20 -28 156 -226 250 -363 47 -69 112 -162 144 -207 32 -44 58 -85 58
-90 0 -5 11 -20 25 -33 14 -13 23 -26 20 -28 -3 -3 7 -16 21 -29 14 -12 22
-23 19 -23 -7 0 31 -56 52 -78 7 -7 13 -17 13 -21 0 -4 11 -21 25 -37 14 -16
25 -35 25 -41 0 -7 3 -13 8 -13 4 0 23 -25 42 -55 19 -30 39 -55 43 -55 5 0 5
-5 2 -10 -3 -6 1 -13 9 -16 9 -3 16 -12 16 -20 0 -8 5 -14 10 -14 6 0 10 -6
10 -14 0 -8 3 -16 8 -18 4 -1 25 -30 47 -62 22 -33 45 -65 52 -71 7 -7 10 -14
8 -16 -2 -3 12 -22 31 -44 19 -22 34 -43 34 -46 0 -4 18 -33 40 -65 23 -33 58
-84 78 -114 20 -30 40 -56 44 -58 4 -2 15 -18 23 -36 9 -19 25 -43 35 -54 11
-12 20 -25 20 -31 0 -5 3 -11 8 -13 9 -4 72 -94 72 -103 0 -4 11 -18 24 -30
14 -13 22 -26 19 -29 -4 -3 4 -14 15 -25 12 -10 22 -23 22 -28 0 -6 9 -18 20
-28 11 -10 20 -24 20 -32 0 -7 5 -13 12 -13 6 0 9 -3 5 -6 -3 -3 3 -15 13 -27
18 -19 31 -20 289 -21 289 -1 283 -2 239 46 -7 8 -17 21 -23 30 -39 63 -80
118 -87 118 -4 0 -8 5 -8 12 0 6 -11 25 -23 42 -13 17 -46 63 -72 101 -27 39
-52 72 -57 73 -4 2 -8 10 -8 17 0 8 -8 19 -17 24 -10 6 -14 11 -10 11 5 0 2 6
-5 14 -7 8 -49 66 -93 130 -44 64 -83 116 -87 116 -5 0 -8 6 -8 13 0 7 -8 22
-18 33 -9 10 -37 48 -61 84 -25 36 -59 85 -76 110 -69 99 -145 206 -152 215
-11 14 -89 125 -148 210 -27 39 -52 72 -57 73 -4 2 -8 10 -8 18 0 8 -4 14 -10
14 -5 0 -10 6 -10 14 0 8 -4 16 -8 18 -4 2 -37 46 -72 98 -36 52 -69 100 -75
106 -5 6 -17 22 -25 34 -8 12 -20 28 -25 34 -6 6 -21 28 -34 49 -12 20 -27 37
-32 37 -6 0 -8 4 -4 9 3 6 -3 14 -12 20 -10 5 -17 13 -16 18 2 9 -92 145 -124
180 -13 13 -22 26 -22 29 1 3 -26 45 -60 92 -34 48 -84 118 -111 157 -28 38
-50 75 -50 81 0 6 26 48 58 93 31 44 84 120 117 168 33 47 66 92 73 100 7 7
10 13 5 13 -4 0 -3 4 2 8 6 4 22 23 35 42 13 19 29 38 35 42 6 5 6 8 0 8 -6 0
-6 3 1 8 6 4 32 39 59 77 26 39 59 84 72 101 12 17 23 36 23 42 0 7 4 12 8 12
7 0 109 143 157 218 6 8 15 23 22 31 46 61 123 174 123 181 0 4 7 11 16 14 8
3 13 10 10 15 -3 5 1 12 10 15 8 3 12 10 9 16 -3 5 -2 10 3 10 10 0 58 69 60
84 0 5 4 12 10 15 10 7 128 170 159 221 12 19 31 45 43 58 11 12 18 22 15 22
-4 0 0 6 7 14 7 7 19 22 26 32 34 52 295 421 307 437 8 9 15 21 15 26 0 5 3
11 8 13 4 2 36 46 71 98 36 52 69 98 75 102 25 17 -17 20 -245 21 l-242 0 -19
-24 c-10 -13 -22 -28 -26 -34 -4 -5 -27 -38 -50 -72 -23 -34 -46 -65 -52 -68
-6 -4 -8 -11 -5 -16 4 -5 2 -9 -3 -9 -5 0 -24 -24 -42 -52 -19 -29 -38 -54
-42 -56 -4 -2 -8 -8 -8 -12 0 -8 -79 -120 -110 -157 -6 -7 -15 -24 -22 -38 -6
-14 -15 -25 -20 -25 -4 0 -8 -6 -8 -14 0 -8 -4 -16 -8 -18 -4 -1 -39 -48 -77
-103 -38 -55 -74 -103 -80 -107 -5 -4 -6 -8 -1 -8 5 0 -1 -8 -12 -19 -12 -10
-19 -21 -15 -24 3 -4 -2 -9 -11 -13 -9 -3 -13 -10 -10 -15 3 -5 1 -9 -3 -9 -5
0 -17 -15 -28 -32 -10 -18 -23 -37 -27 -43 -37 -48 -56 -74 -67 -97 -8 -15
-18 -25 -23 -22 -4 3 -8 0 -8 -7 0 -6 -20 -40 -46 -75 -25 -35 -42 -64 -39
-64 3 0 -4 -11 -17 -25 -34 -36 -48 -53 -48 -60 0 -7 -39 -63 -58 -83 -7 -8
-19 -27 -27 -43 -9 -16 -20 -29 -25 -29 -6 0 -10 -9 -10 -21 0 -11 -4 -18 -8
-15 -4 3 -16 -11 -27 -30 -10 -19 -23 -34 -28 -34 -6 0 -7 -3 -4 -6 4 -4 -4
-19 -16 -34 -47 -60 -57 -75 -57 -88 0 -7 -4 -11 -9 -8 -5 3 -14 -8 -21 -24
-7 -17 -16 -30 -21 -30 -4 0 -11 -9 -14 -20 -3 -11 -12 -26 -18 -32 -25 -27
-68 -88 -61 -88 4 0 -5 -11 -19 -24 -14 -13 -29 -36 -33 -51 -3 -14 -9 -24
-12 -21 -3 3 -11 -2 -17 -11 -12 -16 -14 -16 -29 0 -10 9 -14 17 -9 17 4 0 3
4 -2 8 -16 11 -85 111 -85 122 0 6 -3 10 -8 10 -4 0 -16 16 -26 35 -11 19 -23
35 -28 35 -5 0 -6 5 -3 10 3 6 -1 13 -9 16 -9 3 -14 10 -11 14 3 5 -3 13 -12
19 -10 6 -14 11 -10 11 5 0 2 7 -5 15 -30 34 -38 45 -31 45 4 0 -2 7 -13 15
-10 8 -16 15 -11 15 4 0 -2 9 -13 20 -11 11 -20 27 -20 35 0 8 -4 15 -8 15 -4
0 -16 15 -27 33 -10 17 -21 34 -24 37 -10 9 -106 154 -113 173 -4 9 -12 17
-18 17 -5 0 -10 7 -10 15 0 8 -4 15 -10 15 -5 0 -10 7 -10 15 0 8 -5 15 -11
15 -5 0 -8 4 -4 9 3 6 -1 13 -8 18 -7 4 -23 25 -36 46 -13 21 -29 44 -37 52
-8 8 -14 16 -12 17 2 3 -53 87 -74 113 -5 6 -32 46 -60 90 -29 44 -56 82 -60
83 -5 2 -8 10 -8 18 0 8 -4 14 -10 14 -5 0 -10 5 -10 11 0 6 -13 28 -30 49
-16 20 -27 40 -23 44 3 3 -1 6 -10 6 -9 0 -16 3 -15 8 3 10 -35 72 -44 72 -4
0 -8 5 -8 10 0 6 -16 33 -35 60 -19 27 -35 53 -35 57 0 5 -11 20 -25 35 -14
15 -25 31 -25 36 0 4 -8 17 -17 28 -10 10 -31 39 -48 64 -16 25 -33 47 -38 48
-4 2 -5 8 -1 13 3 5 1 9 -3 9 -5 0 -17 16 -27 35 -11 19 -23 35 -28 35 -5 0
-6 5 -3 10 3 6 2 10 -3 10 -5 0 -15 12 -23 27 -8 15 -19 35 -26 43 -7 8 -20
26 -30 39 -19 23 -19 23 -264 25 -135 0 -253 -1 -263 -2z"/>
<path d="M404 3390 c3 -756 6 -1799 6 -2318 1 -518 4 -942 8 -942 4 1 138 193
297 428 398 586 477 702 553 812 71 102 171 249 308 450 47 69 122 179 167
245 45 66 135 198 200 293 l118 172 -43 57 c-75 103 -268 364 -398 538 -127
170 -229 308 -568 765 -422 569 -642 863 -648 869 -4 3 -4 -613 0 -1369z"/>
</g>
</svg>
